# xmcd
#
# Track frame offsets: 
#        150
#        11490
#        23196
#        34506
#        47195
#        60971
#        73888
#        84894
#        94906
#        108224
#
# Disc length: 1616 seconds
#
# Revision: 0
# Processed by: cddbd v1.5.1PL2 Copyright (c) Steve Scherf et al.
# Submitted via: ExactAudioCopy v0.95a5
#
DISCID=72064e0a
DTITLE=Various Artist - Risqué Blues: Sixty Minute Man
DYEAR=1900
DGENRE=R&B
TTITLE0=The Dominoes - Sixty Minute Man
TTITLE1=Little Willie John - Leave My Kitten Alone
TTITLE2=Hank Ballard and the Midnighters - Sexy Ways
TTITLE3=Wynonie Harris - Lolly Pop Mama
TTITLE4=Bull Moose Jackson - I Want a Bowlegged Woman
TTITLE5=Ray Brown - Boogie at Midnight
TTITLE6=Wynonie Harris - Lovin' Machine
TTITLE7=The Dominoes - You Can't Keep a Good Man Down
TTITLE8=The Lamplighters - I Wanna Know
TTITLE9=The Swallows - Will You Be Mine
EXTD=
EXTT0=
EXTT1=
EXTT2=
EXTT3=
EXTT4=
EXTT5=
EXTT6=
EXTT7=
EXTT8=
EXTT9=
PLAYORDER=
